RBDS020runT25_grf
version=1
nRows=34
nColumns=19
inDegrees=no
endheader
time	ground_force_r_vx	ground_force_r_vy	ground_force_r_vz	ground_force_r_px	ground_force_r_py	ground_force_r_pz	ground_force_r_mx	ground_force_r_my	ground_force_r_mz	ground_force_l_vx	ground_force_l_vy	ground_force_l_vz	ground_force_l_px	ground_force_l_py	ground_force_l_pz	ground_force_l_mx	ground_force_l_my	ground_force_l_mz
     22.49800000	      0.00000000	      0.00000000	      0.00000000	      0.00000000	      0.00000000	      0.00000000	      0.00000000	      0.00000000	      0.00000000	      0.00000000	      0.00000000	      0.00000000	      0.00000000	      0.00000000	      0.00000000	      0.00000000	      0.00000000	      0.00000000
     22.49900000	      0.00000000	      0.00000000	      0.00000000	      0.00000000	      0.00000000	      0.00000000	      0.00000000	      0.00000000	      0.00000000	      0.00000000	      0.00000000	      0.00000000	      0.00000000	      0.00000000	      0.00000000	      0.00000000	      0.00000000	      0.00000000
     22.50000000	      0.00000000	      0.00000000	      0.00000000	      0.00000000	      0.00000000	      0.00000000	      0.00000000	      0.00000000	      0.00000000	      0.00000000	      0.00000000	      0.00000000	      0.00000000	      0.00000000	      0.00000000	      0.00000000	      0.00000000	      0.00000000
     22.50100000	     -0.64010366	     32.95421569	     -2.78887108	      0.70243698	      0.00000000	      0.32440673	      0.00000000	      0.07528821	     -0.00000000	      0.00000000	      0.00000000	      0.00000000	      0.00000000	      0.00000000	      0.00000000	      0.00000000	      0.00000000	      0.00000000
     22.50200000	     -1.28020733	     65.90843137	     -5.57774217	      1.40487396	      0.00000000	      0.64881347	      0.00000000	      0.15057642	     -0.00000000	      0.00000000	      0.00000000	      0.00000000	      0.00000000	      0.00000000	      0.00000000	      0.00000000	      0.00000000	      0.00000000
     22.50300000	     -1.92031099	     98.86264706	     -8.36661325	      2.10731094	      0.00000000	      0.97322020	      0.00000000	      0.22586463	     -0.00000000	      0.00000000	      0.00000000	      0.00000000	      0.00000000	      0.00000000	      0.00000000	      0.00000000	      0.00000000	      0.00000000
     22.50400000	     -3.69947264	    128.78903202	     -9.11339388	      2.34069233	      0.00000000	      1.08086448	     -0.00000000	      0.42880307	     -0.00000000	      0.00000000	      0.00000000	      0.00000000	      0.00000000	      0.00000000	      0.00000000	      0.00000000	      0.00000000	      0.00000000
     22.50500000	     -6.04816329	    157.20150162	     -8.83912929	      2.33954593	      0.00000000	      1.08012753	     -0.00000000	      0.69556661	      0.00000000	      0.00000000	      0.00000000	      0.00000000	      0.00000000	      0.00000000	      0.00000000	      0.00000000	      0.00000000	      0.00000000
     22.50600000	     -8.39685394	    185.61397121	     -8.56486469	      2.33839952	      0.00000000	      1.07939057	     -0.00000000	      0.96233016	      0.00000000	      0.00000000	      0.00000000	      0.00000000	      0.00000000	      0.00000000	      0.00000000	      0.00000000	      0.00000000	      0.00000000
     22.50700000	    -10.75058411	    213.94927164	     -8.29928182	      2.33725518	      0.00000000	      1.07865693	     -0.00000000	      1.23128695	      0.00000000	      0.00000000	      0.00000000	      0.00000000	      0.00000000	      0.00000000	      0.00000000	      0.00000000	      0.00000000	      0.00000000
     22.50800000	    -13.11439329	    242.13023375	     -8.05106242	      2.33611497	      0.00000000	      1.07792992	     -0.00000000	      1.50463025	      0.00000000	      0.00000000	      0.00000000	      0.00000000	      0.00000000	      0.00000000	      0.00000000	      0.00000000	      0.00000000	      0.00000000
     22.50900000	    -15.47820247	    270.31119586	     -7.80284302	      2.33497476	      0.00000000	      1.07720292	     -0.00000000	      1.77797355	      0.00000000	      0.00000000	      0.00000000	      0.00000000	      0.00000000	      0.00000000	      0.00000000	      0.00000000	      0.00000000	      0.00000000
     22.51000000	    -17.84201166	    298.49215796	     -7.55462361	      2.33383455	      0.00000000	      1.07647591	     -0.00000000	      2.05131684	      0.00000000	      0.00000000	      0.00000000	      0.00000000	      0.00000000	      0.00000000	      0.00000000	      0.00000000	      0.00000000	      0.00000000
     22.51100000	    -20.22870243	    326.13061908	     -7.34995756	      2.33269753	      0.00000000	      1.07576859	     -0.00000000	      2.32661162	      0.00000000	      0.00000000	      0.00000000	      0.00000000	      0.00000000	      0.00000000	      0.00000000	      0.00000000	      0.00000000	      0.00000000
     22.51200000	    -22.61539321	    353.76908020	     -7.14529151	      2.33156052	      0.00000000	      1.07506126	     -0.00000000	      2.60190639	      0.00000000	      0.00000000	      0.00000000	      0.00000000	      0.00000000	      0.00000000	      0.00000000	      0.00000000	      0.00000000	      0.00000000
     22.51300000	    -25.00208399	    381.40754131	     -6.94062546	      2.33042351	      0.00000000	      1.07435394	     -0.00000000	      2.87720116	      0.00000000	      0.00000000	      0.00000000	      0.00000000	      0.00000000	      0.00000000	      0.00000000	      0.00000000	      0.00000000	      0.00000000
     22.51400000	    -27.40691425	    408.49751536	     -6.77697577	      2.32928603	      0.00000000	      1.07366594	     -0.00000000	      3.15069705	      0.00000000	      0.00000000	      0.00000000	      0.00000000	      0.00000000	      0.00000000	      0.00000000	      0.00000000	      0.00000000	      0.00000000
     22.51500000	    -29.82081425	    435.31324587	     -6.63383427	      2.32814833	      0.00000000	      1.07298759	     -0.00000000	      3.42329351	      0.00000000	      0.00000000	      0.00000000	      0.00000000	      0.00000000	      0.00000000	      0.00000000	      0.00000000	      0.00000000	      0.00000000
     22.51600000	    -32.23471425	    462.12897639	     -6.49069276	      2.32701063	      0.00000000	      1.07230924	     -0.00000000	      3.69588996	      0.00000000	      0.00000000	      0.00000000	      0.00000000	      0.00000000	      0.00000000	      0.00000000	      0.00000000	      0.00000000	      0.00000000
     22.51700000	    -34.65765719	    488.59029469	     -6.37407764	      2.32587117	      0.00000000	      1.07164342	     -0.00000000	      3.96605495	      0.00000000	      0.00000000	      0.00000000	      0.00000000	      0.00000000	      0.00000000	      0.00000000	      0.00000000	      0.00000000	      0.00000000
     22.51800000	    -37.09868602	    514.34278858	     -6.31051527	      2.32472822	      0.00000000	      1.07100262	     -0.00000000	      4.23135701	      0.00000000	      0.00000000	      0.00000000	      0.00000000	      0.00000000	      0.00000000	      0.00000000	      0.00000000	      0.00000000	      0.00000000
     22.51900000	    -39.53971485	    540.09528247	     -6.24695291	      2.32358527	      0.00000000	      1.07036183	     -0.00000000	      4.49665907	      0.00000000	      0.00000000	      0.00000000	      0.00000000	      0.00000000	      0.00000000	      0.00000000	      0.00000000	      0.00000000	      0.00000000
     22.52000000	    -41.98074368	    565.84777637	     -6.18339054	      2.32244231	      0.00000000	      1.06972103	     -0.00000000	      4.76196113	      0.00000000	      0.00000000	      0.00000000	      0.00000000	      0.00000000	      0.00000000	      0.00000000	      0.00000000	      0.00000000	      0.00000000
     22.52100000	    -44.44356056	    590.34272504	     -6.21695495	      2.32128909	      0.00000000	      1.06912543	     -0.00000000	      5.01551848	      0.00000000	      0.00000000	      0.00000000	      0.00000000	      0.00000000	      0.00000000	      0.00000000	      0.00000000	      0.00000000	      0.00000000
     22.52200000	    -46.90637745	    614.83767370	     -6.25051936	      2.32013586	      0.00000000	      1.06852982	     -0.00000000	      5.26907582	      0.00000000	      0.00000000	      0.00000000	      0.00000000	      0.00000000	      0.00000000	      0.00000000	      0.00000000	      0.00000000	      0.00000000
     22.52300000	    -49.36919434	    639.33262237	     -6.28408377	      2.31898264	      0.00000000	      1.06793421	     -0.00000000	      5.52263316	      0.00000000	      0.00000000	      0.00000000	      0.00000000	      0.00000000	      0.00000000	      0.00000000	      0.00000000	      0.00000000	      0.00000000
     22.52400000	    -51.83903133	    662.89291265	     -6.39323729	      2.31781904	      0.00000000	      1.06737306	     -0.00000000	      5.76556597	      0.00000000	      0.00000000	      0.00000000	      0.00000000	      0.00000000	      0.00000000	      0.00000000	      0.00000000	      0.00000000	      0.00000000
     22.52500000	    -54.31237838	    685.98587372	     -6.54018535	      2.31665026	      0.00000000	      1.06682913	     -0.00000000	      6.00318652	      0.00000000	      0.00000000	      0.00000000	      0.00000000	      0.00000000	      0.00000000	      0.00000000	      0.00000000	      0.00000000	      0.00000000
     22.52600000	    -56.78572543	    709.07883479	     -6.68713342	      2.31548148	      0.00000000	      1.06628519	     -0.00000000	      6.24080706	      0.00000000	      0.00000000	      0.00000000	      0.00000000	      0.00000000	      0.00000000	      0.00000000	      0.00000000	      0.00000000	      0.00000000
     22.52700000	    -59.25673743	    731.67319658	     -6.87656030	      2.31430572	      0.00000000	      1.06576021	     -0.00000000	      6.47184676	      0.00000000	      0.00000000	      0.00000000	      0.00000000	      0.00000000	      0.00000000	      0.00000000	      0.00000000	      0.00000000	      0.00000000
     22.52800000	    -61.72307934	    753.27035980	     -7.15094478	      2.31311602	      0.00000000	      1.06527312	     -0.00000000	      6.68972476	      0.00000000	      0.00000000	      0.00000000	      0.00000000	      0.00000000	      0.00000000	      0.00000000	      0.00000000	      0.00000000	      0.00000000
     22.52900000	    -64.18942125	    774.86752301	     -7.42532926	      2.31192632	      0.00000000	      1.06478603	     -0.00000000	      6.90760276	      0.00000000	      0.00000000	      0.00000000	      0.00000000	      0.00000000	      0.00000000	      0.00000000	      0.00000000	      0.00000000	      0.00000000
     22.53000000	    -66.65576315	    796.46468623	     -7.69971375	      2.31073662	      0.00000000	      1.06429895	     -0.00000000	      7.12548076	      0.00000000	      0.00000000	      0.00000000	      0.00000000	      0.00000000	      0.00000000	      0.00000000	      0.00000000	      0.00000000	      0.00000000
     22.53100000	    -69.09132327	    816.52085765	     -8.11244045	      2.30952072	      0.00000000	      1.06387244	     -0.00000000	      7.32032799	      0.00000000	      0.00000000	      0.00000000	      0.00000000	      0.00000000	      0.00000000	      0.00000000	      0.00000000	      0.00000000	      0.00000000
